<?xml version="1.0" encoding="utf-8"?>
<!-- Generator: Adobe Illustrator 22.1.0, SVG Export Plug-In . SVG Version: 6.00 Build 0)  -->
<svg version="1.1" id="Layer_1" xmlns="http://www.w3.org/2000/svg" xmlns:xlink="http://www.w3.org/1999/xlink" x="0px" y="0px"
	 viewBox="0 0 1050 192" style="enable-background:new 0 0 1050 192;" xml:space="preserve">
<style type="text/css">
	.st0{fill:#001489;}
</style>
<g>
	<g>
		<g>
			<g>
				<g>
					<path class="st0" d="M284.9,63.2c-4.6-4.1-10.9-6.1-18.6-6.1l-33.5,0l0,77.8l17.7,0l0-27.3l14.8,0c8.4,0,15-1.9,19.6-5.8
						c4.6-3.9,7-10.5,7-19.7C291.9,73.7,289.5,67.3,284.9,63.2 M250.4,72.2l13.3,0c3.4,0,6,0.8,7.8,2.3c1.8,1.5,2.7,4.1,2.7,7.7
						c0,3.6-0.9,6.3-2.7,7.9c-1.8,1.6-4.4,2.5-7.8,2.5l-13.3,0L250.4,72.2z"/>
					<path class="st0" d="M387.7,84.5c-4.7-5.9-11.9-8.9-21.4-8.9c-9.5,0-16.7,3-21.4,8.9c-4.7,5.8-7,12.8-7,20.8
						c0,8.1,2.4,15.1,7,20.8c4.7,5.8,11.9,8.8,21.4,8.8c9.5,0,16.7-2.9,21.4-8.8c4.7-5.8,7-12.8,7-20.8
						C394.7,97.3,392.3,90.4,387.7,84.5 M357.4,93.4c2.1-2.7,4.9-4,8.8-4c3.8,0,6.7,1.3,8.7,4c2.1,2.7,3.1,6.7,3.1,11.9
						c0,5.2-1.1,9.2-3.1,11.9c-2,2.7-4.9,4-8.7,4c-3.8,0-6.7-1.3-8.8-4c-2.1-2.7-3.1-6.8-3.1-11.9
						C354.3,100.1,355.3,96.1,357.4,93.4"/>
					<path class="st0" d="M642.8,57.8l-0.2-0.6l-19.3,0l-27.8,77.8l18.7,0l5.1-15.6l26.5,0l5,15.6l19.3,0L642.8,57.8z M641,104.3
						l-16.7,0l8.5-25.7L641,104.3z"/>
					<path class="st0" d="M818,98.2c-0.7-4.4-2.2-8.3-4.5-11.6c-2.5-3.8-5.8-6.6-9.7-8.3c-3.9-1.7-8.3-2.6-13.1-2.6
						c-8.2,0-14.9,2.6-20,7.8c-5.1,5.2-7.7,12.6-7.7,22.2c0,10.3,2.9,17.8,8.6,22.4c5.7,4.6,12.3,6.9,19.6,6.9c9,0,16-2.8,21-8.2
						c3.2-3.4,5.1-6.9,5.5-10.3l0.1-1.1l-16.1,0l-0.3,0.5c-0.8,1.5-1.7,2.6-2.7,3.4c-1.8,1.5-4.3,2.3-7.3,2.3
						c-2.8,0-5.3-0.6-7.3-1.9c-3.1-1.9-4.8-5.1-5.2-9.7l39.3,0l0-0.9C818.6,104.3,818.4,100.7,818,98.2 M779.6,98.8
						c0.6-2.8,1.7-5.1,3.3-6.8c1.8-1.9,4.4-2.8,7.8-2.8c3.1,0,5.7,0.9,7.8,2.7c1.8,1.6,3,3.9,3.3,6.9L779.6,98.8z"/>
					<path class="st0" d="M493.6,98.2c-0.7-4.4-2.2-8.3-4.5-11.6c-2.5-3.8-5.8-6.6-9.7-8.3c-3.9-1.7-8.3-2.6-13.1-2.6
						c-8.2,0-14.9,2.6-20,7.8c-5.1,5.2-7.7,12.6-7.7,22.2c0,10.3,2.9,17.8,8.6,22.4c5.7,4.6,12.3,6.9,19.6,6.9c9,0,16-2.8,21-8.2
						c3.2-3.4,5.1-6.9,5.5-10.3l0.1-1.1l-16.1,0l-0.3,0.5c-0.8,1.5-1.7,2.6-2.7,3.4c-1.8,1.5-4.3,2.3-7.3,2.3
						c-2.8,0-5.3-0.6-7.3-1.9c-3.1-1.9-4.8-5.1-5.2-9.7l39.3,0l0-0.9C494.1,104.3,494,100.7,493.6,98.2 M455.2,98.8
						c0.6-2.8,1.7-5.1,3.3-6.8c1.8-1.9,4.4-2.8,7.8-2.8c3.1,0,5.7,0.9,7.8,2.7c1.8,1.6,3,3.9,3.3,6.9L455.2,98.8z"/>
					<path class="st0" d="M927.1,112.3c-0.3,2.7-1.1,4.8-2.3,6.5c-1.2,1.5-3.3,2.3-6.3,2.3c-4.3,0-7.1-2-8.7-6.2
						c-0.9-2.3-1.3-5.4-1.3-9.2c0-4,0.5-7.3,1.3-9.7c1.6-4.4,4.5-6.5,8.9-6.5c3.1,0,5.2,0.9,6.7,2.9c1,1.5,1.6,3.2,1.9,5.1l0.1,0.8
						l16.4,0l-0.1-1c-0.8-8-3.6-13.6-8.1-16.8c-4.5-3.2-10.3-4.8-17.3-4.8c-8.3,0-14.8,2.7-19.5,8.1c-4.7,5.3-7.1,12.8-7.1,22.3
						c0,8.4,2.1,15.4,6.4,20.7c4.3,5.4,11,8.1,20,8.1c9,0,15.9-3.3,20.5-9.7c2.9-4,4.5-8.3,4.9-12.7l0.1-1l-16.4,0L927.1,112.3z"/>
					<path class="st0" d="M536.5,112.3c-0.3,2.7-1.1,4.8-2.3,6.5c-1.2,1.5-3.3,2.3-6.3,2.3c-4.3,0-7.1-2-8.7-6.2
						c-0.9-2.3-1.3-5.4-1.3-9.2c0-4,0.5-7.3,1.3-9.7c1.6-4.4,4.5-6.5,8.9-6.5c3.1,0,5.2,0.9,6.7,2.9c1,1.5,1.6,3.2,1.9,5.1l0.1,0.8
						l16.4,0l-0.1-1c-0.8-8-3.6-13.6-8.1-16.8c-4.5-3.2-10.3-4.8-17.3-4.8c-8.3,0-14.8,2.7-19.5,8.1c-4.7,5.3-7.1,12.8-7.1,22.3
						c0,8.4,2.1,15.4,6.4,20.7c4.3,5.4,11,8.1,20,8.1c9,0,15.9-3.3,20.5-9.7c2.9-4,4.5-8.3,4.9-12.7l0.1-1l-16.4,0L536.5,112.3z"/>
					<path class="st0" d="M1003.2,129.3c-0.8-0.4-1.4-0.8-1.7-1.3c-0.2-0.3-0.6-1.1-0.7-3.3c-0.1-2.4-0.1-4.5-0.1-6.3l0-24.9
						c0-6.9-2.5-11.7-7.5-14.2c-4.8-2.4-10.3-3.6-16.4-3.6c-9.4,0-16.2,2.5-20.2,7.5c-2.5,3.2-3.9,7.3-4.2,12.2l-0.1,1l15.5,0
						l0.1-0.8c0.3-1.9,0.9-3.4,1.8-4.5c1.2-1.4,3.4-2.2,6.5-2.2c2.9,0,5,0.4,6.5,1.2c1.2,0.7,1.9,1.9,1.9,3.8c0,0.9-0.3,2.2-2.5,3.2
						c-1,0.5-2.9,0.9-5.4,1.2l-4.9,0.6c-5.6,0.7-10,1.9-12.9,3.6c-5.5,3.2-8.3,8.3-8.3,15.3c0,5.4,1.7,9.7,5.2,12.7
						c3.4,3,7.7,4.5,12.9,4.5c4,0,7.7-0.9,10.9-2.8c2-1.2,3.9-2.6,5.6-4.2c0.1,0.5,0.1,0.9,0.2,1.4c0.2,1,0.5,2.1,0.9,3.3l0.2,0.6
						l17.1,0v-3.6L1003.2,129.3z M984.6,107.4v3.7c-0.1,4.4-1.3,7.5-3.7,9.1c-2.4,1.7-5.2,2.5-8.1,2.5c-1.8,0-3.2-0.5-4.4-1.4
						c-1.1-0.9-1.7-2.4-1.7-4.5c0-2.4,0.9-4.1,2.9-5.2c1.2-0.7,3.3-1.3,6.2-1.8l3.2-0.6c1.7-0.3,3-0.6,4-1
						C983.7,107.9,984.2,107.7,984.6,107.4"/>
					<g>
						<rect x="867.9" y="77.7" class="st0" width="16.8" height="57.2"/>
						<rect x="867.9" y="57.1" class="st0" width="16.8" height="14.2"/>
					</g>
					<path class="st0" d="M590,89V76.7l-9.1,0V60.9l-16.5,0v15.8l-7.8,0l0,12.3l7.8,0l0,33.5c0,3.7,0.9,6.6,2.7,8.4
						c2.5,2.6,6.9,3.9,13.2,3.9c0.6,0,1.1,0,1.7,0h7.9v-12v-1.3v0l-5.1,0c-2.2,0-4-1.8-4-4v-3.3h0V89L590,89z"/>
					<path class="st0" d="M431.5,89V76.7l-9.1,0V60.9l-16.5,0v15.8l-7.8,0l0,12.3h7.8l0,33.5c0,3.7,0.9,6.6,2.7,8.4
						c2.5,2.6,6.9,3.9,13.2,3.9c0.6,0,1.1,0,1.7,0h7.9v-12v-1.3v0h-5.1c-2.2,0-4-1.8-4-4v-3.3h0l0-25.3L431.5,89z"/>
					<path class="st0" d="M329.9,76.7c-6.8,0-13.3,5.1-15.1,11.7l0-10.7l-15.9,0l0,57.2l16.7,0l0-25.8c0-4.3,0.5-7.5,1.6-9.5
						c1.9-3.5,5.5-7.2,11-7.2c0.4,0,6.1,0,6.1,0l0-15.6C334.3,76.7,330.2,76.7,329.9,76.7z"/>
					<path class="st0" d="M756,98.6c0-3.7-0.2-6.5-0.5-8.5c-0.6-3-1.7-5.6-3.4-7.6c-2.1-2.5-4.4-4.3-6.9-5.3c-2.5-1-5.1-1.5-7.7-1.5
						c-3.8,0-7.4,0.8-10.5,2.4c-2.5,1.4-4.7,3.4-6.5,6.1c-1.1-2.1-2.6-4-4.4-5.5c-2.8-2-6.5-3-11-3c-4.7,0-8.6,1.2-11.6,3.5
						c-1.2,0.9-2.4,2.1-3.6,3.8v-6.2l-16.2,0l0,58.2l16.8,0v-34.7c0-2.9,0.4-5.1,1.1-6.4c1.3-2.4,3.7-3.5,7.6-3.5
						c3.2,0,5.3,1.1,6.4,3.5c0.6,1.4,0.9,3.7,0.9,6.9l0,34.4h16.7l0-34.4c0-2.4,0.4-4.4,1.1-6c1.4-3,3.8-4.5,7.5-4.5
						c3.1,0,5.2,1.1,6.3,3.4c0.6,1.2,0.9,2.8,0.9,4.8v0.5v36.1l17.1,0V98.8h0L756,98.6z"/>
					<path class="st0" d="M856.5,76.7c-6.8,0-13.3,5.1-15.1,11.7V77.7l-15.9,0l0,57.2l16.7,0l0-25.8c0-4.3,0.5-7.5,1.6-9.5
						c1.9-3.5,5.5-7.2,11-7.2c0.4,0,6.1,0,6.1,0V76.7C861,76.7,856.8,76.7,856.5,76.7z"/>
				</g>
				<g>
					<path class="st0" d="M1017.6,57.1v2.5h-4.3v11.8h-3V59.6h-4.3v-2.5H1017.6z"/>
					<polygon class="st0" points="1031.3,57.1 1029.8,57.1 1027.2,68.3 1024.6,57.1 1023,57.1 1020.2,57.1 1020.2,71.4 1023,71.4 
						1023,61.7 1023,60.3 1025.7,71.4 1028.6,71.4 1031.3,60.3 1031.3,61.7 1031.3,71.4 1034,71.4 1034,57.1 					"/>
				</g>
			</g>
		</g>
	</g>
	<path class="st0" d="M172.6,85.2l-46.3-42.5c-1.9-1.7-5-1.7-6.8,0L73.1,85.2c-1.9,1.7-3.4,5.2-3.4,7.8v19.4c0,2.5,2.1,4.6,4.6,4.6
		h9.8c2.5,0,4.6-2.1,4.6-4.6v-11c0-2.5,1.5-6,3.4-7.8l27.3-25c1.9-1.7,5-1.7,6.8,0l27.3,25c1.9,1.7,3.4,5.2,3.4,7.8v40.7
		c0,2.5-2.1,4.6-4.6,4.6h-19.8v-28.6h-19.1v28.6H49.7c-2.5,0-4.6-2.1-4.6-4.6v-56c0-2.5,1.5-6,3.4-7.8l27.3-25c1.9-1.7,5-1.7,6.8,0
		l1.9,1.7c1.9,1.7,4.9,1.7,6.8,0l7.2-6.7c1.9-1.7,1.9-4.6,0-6.3L82.6,27.5c-1.9-1.7-5-1.7-6.8,0L29.4,70c-1.9,1.7-3.4,5.2-3.4,7.8
		v83.4c0,2.5,2.1,4.6,4.6,4.6h140.7c2.5,0,4.6-2.1,4.6-4.6V93C176,90.5,174.5,87,172.6,85.2z"/>
</g>
<g>
</g>
<g>
</g>
<g>
</g>
<g>
</g>
<g>
</g>
<g>
</g>
<g>
</g>
<g>
</g>
<g>
</g>
<g>
</g>
<g>
</g>
<g>
</g>
<g>
</g>
<g>
</g>
<g>
</g>
</svg>
