<?xml version="1.0" encoding="utf-8"?>
<!-- Generator: Adobe Illustrator 24.1.2, SVG Export Plug-In . SVG Version: 6.00 Build 0)  -->
<svg version="1.1" id="Layer_1" xmlns="http://www.w3.org/2000/svg" xmlns:xlink="http://www.w3.org/1999/xlink" x="0px" y="0px"
	 viewBox="0 0 368 165" style="enable-background:new 0 0 368 165;" xml:space="preserve">
<style type="text/css">
	.st0{fill:none;}
	.st1{fill:#F7E002;}
</style>
<g>
	<path class="st0" d="M89.65,65.12c0,0,48.67,0.2,52.27,0c3.6-0.2,2.99-3.68,2.99-3.68s-2.09-20.4-2.39-24.88
		c0.02-2.22-1.76-4.04-3.98-4.07c-0.16,0-0.33,0.01-0.49,0.03c0,0-26.22,1-31.51,1.33c-3.1,0.17-6.04,1.46-8.25,3.64L80.94,55.3
		c0,0-3.12,2.75,0.87,6.53C85.8,65.62,89.65,65.12,89.65,65.12z"/>
	<path class="st0" d="M152.9,62c0.66,4.46,4.49,3.9,4.49,3.9h74.12c7.26,0,3.63-5.22,3.63-5.22s-14.82-14.47-20.81-20.08
		c-5.98-5.61-6.77-5.62-9.42-6.11c-2.64-0.49-53.19-1.98-53.19-1.98c-4.18-0.12-3.12,3.85-3.12,3.85S152.21,57.55,152.9,62z"/>
	<circle class="st0" cx="66.34" cy="73.65" r="4.95"/>
	<path class="st0" d="M167.03,71.12c-0.08-1.15-1.01-2.05-2.16-2.11h-5.46c-1.05,0.09-1.83,1.02-1.74,2.07c0,0.01,0,0.02,0,0.03
		v1.01h-3.9v2.34h3.9v0.66c0,1.08,0.65,2.46,1.73,2.46h5.46c1.08,0,2.16-1.38,2.16-2.46v-0.66h4.68v-2.34h-4.68V71.12z"/>
	<path class="st1" d="M334,81.88c0-0.67,0-1.07,0-1.12V81.88z"/>
	<path class="st1" d="M39.08,80.31l294.43,0.35c-0.18-1.54-1.25-2.84-2.73-3.31c-19.92-6.69-75.19-13.46-80.02-14.04
		S211.41,30.9,211.41,30.9c-1.47-1.01-3.17-1.65-4.94-1.83c-18.13-2.1-36.37-3.14-54.62-3.12c-25.04,0-48.48,1.8-68.13,4.93
		c-1.29,0.18-2.54,0.64-3.64,1.35c0,0-41.09,31.7-43.93,34.38c-2.84,2.68-2.06,17.95-2.06,17.95c0,15.68,7.5,28.95,17.95,34.01
		c0.52-16.06,13.67-28.83,29.74-28.87c15.77,0.01,28.78,12.34,29.65,28.09h0.06l142-0.44c0,0.11,0,0.23,0,0
		c0-15.28,12.41-28.55,27.69-28.55c14.68,0,27.05,11.44,27.97,25.89c22.96-1.28,24.7-26.79,24.8-32.71L39.04,81.61V80.3L39.08,80.31
		z M171.71,74.48h-4.68v0.66c0,1.08-1.08,2.46-2.16,2.46h-5.46c-1.08,0-1.73-1.38-1.73-2.46v-0.66h-3.9v-2.34h3.9v-1.01
		c-0.11-1.05,0.65-1.99,1.7-2.1c0.01,0,0.02,0,0.03,0h5.46c1.15,0.05,2.08,0.96,2.16,2.11v1.01h4.68V74.48z M151.72,32.51
		c0,0,50.54,1.49,53.19,1.98s3.47,0.5,9.42,6.11s20.81,20.08,20.81,20.08s3.64,5.22-3.63,5.22h-74.12c0,0-3.82,0.57-4.49-3.9
		s-4.29-25.65-4.29-25.65S147.53,32.35,151.72,32.51L151.72,32.51z M80.93,55.3l17.34-17.83c2.22-2.17,5.15-3.47,8.25-3.64
		c5.28-0.33,31.51-1.33,31.51-1.33c2.21-0.25,4.2,1.34,4.45,3.55c0.02,0.16,0.03,0.33,0.03,0.49c0.3,4.48,2.39,24.88,2.39,24.88
		s0.6,3.48-2.99,3.68c-3.59,0.2-52.27,0-52.27,0s-3.9,0.5-7.86-3.28C77.81,58.05,80.92,55.3,80.93,55.3L80.93,55.3z M66.34,68.7
		c2.74,0,4.95,2.22,4.95,4.95l0,0c0,2.74-2.22,4.95-4.95,4.95h0c-2.74,0-4.95-2.22-4.95-4.95l0,0C61.39,70.92,63.61,68.7,66.34,68.7
		C66.34,68.7,66.34,68.7,66.34,68.7L66.34,68.7z"/>
	<path class="st1" d="M334,81.97L334,81.97L334,81.97z"/>
	<path class="st1" d="M281.9,94.24c-12.38,0-22.41,10.03-22.41,22.41s10.03,22.41,22.41,22.41s22.41-10.03,22.41-22.41
		C304.3,104.27,294.27,94.24,281.9,94.24z M281.9,133.79c-2.32,0-4.52-0.47-6.53-1.32c-1-0.42-1.96-0.94-2.85-1.55
		c-0.45-0.3-0.88-0.62-1.29-0.97c-1.66-1.37-3.05-3.05-4.08-4.95c-1.29-2.38-2.02-5.1-2.02-8c0-9.26,7.51-16.77,16.77-16.77
		c9.26,0,16.77,7.51,16.77,16.77S291.16,133.79,281.9,133.79z"/>
	<path class="st1" d="M81.79,94.24c-12.38-0.01-22.41,10.02-22.42,22.39c0,0.01,0,0.01,0,0.02c0,12.38,10.03,22.41,22.41,22.41
		s22.41-10.03,22.41-22.41C104.18,104.28,94.15,94.25,81.79,94.24z M81.79,133.79c-2.32,0-4.52-0.47-6.53-1.32
		c-1-0.42-1.96-0.94-2.85-1.55c-0.45-0.3-0.88-0.62-1.29-0.97c-1.66-1.37-3.05-3.05-4.08-4.95c-1.29-2.38-2.02-5.1-2.02-8
		c0-9.26,7.51-16.77,16.77-16.77c9.26,0,16.77,7.51,16.77,16.77S91.05,133.79,81.79,133.79z"/>
</g>
</svg>
