<?xml version="1.0" encoding="utf-8"?>
<!-- Generator: Adobe Illustrator 24.1.2, SVG Export Plug-In . SVG Version: 6.00 Build 0)  -->
<svg version="1.1" id="Layer_1" xmlns="http://www.w3.org/2000/svg" xmlns:xlink="http://www.w3.org/1999/xlink" x="0px" y="0px"
	 viewBox="0 0 315.1 541.9" style="enable-background:new 0 0 315.1 541.9;" xml:space="preserve">
<path d="M307.7,230.6l-116.1-83c-4.9-3.5-11.4-4.3-17-2l-76.8,44.1l-22.3,12.9l14.2-37.9c22,9.3,47.3-1,56.5-23
	c9.3-22-1-47.3-23-56.5c-22-9.3-47.3,1-56.5,23c-3.9,9.3-4.5,19.6-1.5,29.2c-2.8,2-4.9,4.8-6.1,8l-33.7,89.7
	c-3.5,9.2,1.2,19.4,10.4,22.9c2,0.8,4.1,1.1,6.2,1.1h0.1c0.5,0,1,0.1,1.6,0.1c3.1,0,6.2-0.8,8.9-2.4L125,215l33.3,57.7
	c1.9,4.1,4.4,15.1-9.1,33.3l-49.5,70.7l-0.9,1.2c-0.5,1-0.8,2.3-0.8,3.5c0,0.8,0,1.6,0.2,2.3l0.3,0.7l0,0l0,0l46.8,133.1l1.8,5
	c3.4,9.2,13.6,13.9,22.8,10.5c8.5-3.1,13.2-12.1,11.1-20.9l-42.4-130c-0.2-0.7-0.1-1.4,0.3-2l42.8-65.2c0.7-1.1,2.1-1.4,3.2-0.7
	s1.4,2.1,0.7,3.2l-40.3,61.5v0.1c-1.2,1.7-1.4,3.9-0.7,5.9l-0.1,0.4L185.8,511l8.4,19.6c3.4,9.2,13.6,13.9,22.8,10.5
	s13.9-13.6,10.5-22.8l-45.8-125l55-72.5c0.5-0.9,1.1-1.8,1.9-2.6c9.5-11.4,25.2-35.7,11.7-59.3l-25-43.4l61.9,44.3
	c8,5.7,19.1,3.8,24.8-4.2C317.5,247.4,315.6,236.3,307.7,230.6z"/>
<polygon points="177.1,66.8 169.6,62.5 148.7,76.6 158.3,82 146,94.8 174.3,80.6 164.7,75.1 "/>
<polygon points="140.3,35.1 131.7,34.8 119.6,56.9 130.6,57.3 125.6,74.3 144.2,48.6 133.1,48.2 "/>
<polygon points="58.2,48.7 52,54.7 59.6,78.7 67.5,71 76.3,86.4 70.7,55.2 62.7,62.9 "/>
</svg>
