<svg id="Layer_1" data-name="Layer 1" xmlns="http://www.w3.org/2000/svg" viewBox="0 0 283.06 400.14"><title>co-2</title><path d="M98,474s-157.24-35.2-29.34-223c0,0-4.69,75.1,29.34,75.1s29.34-37.55,21.12-68.06,0-50.46,19.95-93.88,30.51-90.35,30.51-90.35,12.91,49.28,32.86,68.06S252.85,187.66,228.2,224s-7,45.76,1.17,49.87,34,1.76,42.24-90.94c0,0,85.66,144.33-32.86,278.11,0,0,25.72-62.93,14.08-133.77,0,0-17.9,108.45-42.24,100.92-16.4-5.08-4.72-51-1.07-69.73s-10.66-51.14-22.39-66.39c0,0,4.11,53.85-23.14,72.41S145.11,428,129.63,434.09,94.54,409.51,103.82,366C103.82,366,68.6,415.5,98,474Z" transform="translate(-18.49 -73.84)"/></svg>