<?xml version="1.0" encoding="utf-8"?>
<!-- Generator: Adobe Illustrator 24.1.2, SVG Export Plug-In . SVG Version: 6.00 Build 0)  -->
<svg version="1.1" id="Layer_1" xmlns="http://www.w3.org/2000/svg" xmlns:xlink="http://www.w3.org/1999/xlink" x="0px" y="0px"
	 viewBox="0 0 159.3 478.5" style="enable-background:new 0 0 159.3 478.5;" xml:space="preserve">
<style type="text/css">
	.st0{fill:#FFFFFF;}
	.st1{fill:none;}
</style>
<rect x="51.4" y="151.2" class="st0" width="56.8" height="71.2"/>
<path class="st1" d="M121.5,124c-2,0-3.5,1.6-3.5,3.6v0.1v51.2h7v-51.2C125.1,125.7,123.6,124.1,121.5,124L121.5,124z"/>
<path class="st1" d="M38,124c-2.1,0-3.9,1.6-4,3.7v51.2h8v-51.2C41.9,125.7,40.1,124,38,124z"/>
<circle cx="80.3" cy="41.7" r="41.7"/>
<path d="M159,196.4v-93.2c0-6.7-4.4-12.3-11.1-12.3H12.5C5.7,91,0.2,96.4,0,103.2v93.2c0.1,2.6,0.8,5.1,2,7.4
	c2.9,6.2,9.1,10.1,15.9,10.1H42V461c0,9.4,7.6,17,17,17s17-7.6,17-17V303.7c-0.1-1.9,1.3-3.6,3.2-3.8c1.9-0.1,3.6,1.3,3.8,3.2
	c0,0.2,0,0.4,0,0.5v157.8c0,9.5,8,17.1,17.5,17.1s17.5-7.7,17.5-17.1V213.9h24.8c8.6,0,15.3-6.4,16.5-14.7
	C159.2,198.3,159.2,197.3,159,196.4z M42,178.9h-8v-51.2c0-2.2,1.8-4,4-4s4,1.8,4,4V178.9z M104,178.9h-3.4c-9.5,0-17.1,8-17.1,17.5
	s7.7,17.5,17.1,17.5h3.4v1.8c0,1.6-1.1,2.2-2.7,2.2h-42c-1.6,0-3.3-0.7-3.3-2.2v-1.8h4.1c9.5,0,17.1-8,17.1-17.5
	s-7.7-17.5-17.1-17.5H56v-18.8c0.2-1.7,1.6-3,3.3-3.2h42c1.6,0.2,2.8,1.5,2.7,3.2V178.9z M125,173.8v5.2h-7v-51.2
	c-0.1-1.9,1.3-3.6,3.2-3.8c1.9-0.1,3.6,1.3,3.8,3.2c0,0.2,0,0.4,0,0.5V173.8L125,173.8z"/>
<g>
	<path d="M87.7,168.1l-12.6,12.6c0.7,0.4,1.5,0.7,2.4,0.9l11.2-11.2C88.4,169.6,88.1,168.8,87.7,168.1z"/>
	<path d="M85.3,165.3l-13,13c0.5,0.6,1,1.2,1.7,1.7l13-13C86.5,166.3,85.9,165.8,85.3,165.3z"/>
	<path d="M81.8,163.6l-11.2,11.2c0.2,0.8,0.5,1.6,0.9,2.4l12.6-12.6C83.4,164.1,82.6,163.8,81.8,163.6z"/>
	<path d="M79.1,181.8c0.2,0,0.4,0,0.6,0c5.1,0,9.3-4.1,9.3-9.3c0-0.2,0-0.4,0-0.6L79.1,181.8z"/>
	<path d="M80.2,163.4c-0.2,0-0.4,0-0.6,0c-5.1,0-9.3,4.1-9.3,9.3c0,0.2,0,0.4,0,0.6L80.2,163.4z"/>
</g>
</svg>
