<?xml version="1.0" encoding="utf-8"?>
<!-- Generator: Adobe Illustrator 24.1.2, SVG Export Plug-In . SVG Version: 6.00 Build 0)  -->
<svg version="1.1" id="Layer_1" xmlns="http://www.w3.org/2000/svg" xmlns:xlink="http://www.w3.org/1999/xlink" x="0px" y="0px"
	 viewBox="0 0 308.97 233.03" style="enable-background:new 0 0 308.97 233.03;" xml:space="preserve">
<style type="text/css">
	.st0{fill:#F7E002;}
</style>
<g>
	<g>
		<path class="st0" d="M29.26,227.67H16.93c-1.33,0-2.4-1.07-2.4-2.4V7.77c0-1.33,1.07-2.4,2.4-2.4h12.33c1.33,0,2.4,1.07,2.4,2.4
			v217.5C31.66,226.59,30.59,227.67,29.26,227.67z"/>
		<path class="st0" d="M55.54,227.67H43.21c-1.33,0-2.4-1.07-2.4-2.4V7.77c0-1.33,1.07-2.4,2.4-2.4h12.33c1.33,0,2.4,1.07,2.4,2.4
			v217.5C57.94,226.59,56.86,227.67,55.54,227.67z"/>
		<path class="st0" d="M81.82,227.67H69.49c-1.33,0-2.4-1.07-2.4-2.4V7.77c0-1.33,1.07-2.4,2.4-2.4h12.33c1.33,0,2.4,1.07,2.4,2.4
			v217.5C84.22,226.59,83.14,227.67,81.82,227.67z"/>
		<path class="st0" d="M108.09,227.67H95.76c-1.33,0-2.4-1.07-2.4-2.4V7.77c0-1.33,1.07-2.4,2.4-2.4h12.33c1.33,0,2.4,1.07,2.4,2.4
			v217.5C110.5,226.59,109.42,227.67,108.09,227.67z"/>
		<path class="st0" d="M134.37,227.67h-12.33c-1.33,0-2.4-1.07-2.4-2.4V7.77c0-1.33,1.07-2.4,2.4-2.4h12.33c1.33,0,2.4,1.07,2.4,2.4
			v217.5C136.77,226.59,135.7,227.67,134.37,227.67z"/>
		<path class="st0" d="M160.65,227.67h-12.33c-1.33,0-2.4-1.07-2.4-2.4V7.77c0-1.33,1.07-2.4,2.4-2.4h12.33c1.33,0,2.4,1.07,2.4,2.4
			v217.5C163.05,226.59,161.98,227.67,160.65,227.67z"/>
		<path class="st0" d="M186.93,227.67H174.6c-1.33,0-2.4-1.07-2.4-2.4V7.77c0-1.33,1.07-2.4,2.4-2.4h12.33c1.33,0,2.4,1.07,2.4,2.4
			v217.5C189.33,226.59,188.25,227.67,186.93,227.67z"/>
		<path class="st0" d="M213.2,227.67h-12.33c-1.33,0-2.4-1.07-2.4-2.4V7.77c0-1.33,1.07-2.4,2.4-2.4h12.33c1.33,0,2.4,1.07,2.4,2.4
			v217.5C215.61,226.59,214.53,227.67,213.2,227.67z"/>
		<path class="st0" d="M239.48,227.67h-12.33c-1.33,0-2.4-1.07-2.4-2.4V7.77c0-1.33,1.07-2.4,2.4-2.4h12.33c1.33,0,2.4,1.07,2.4,2.4
			v217.5C241.89,226.59,240.81,227.67,239.48,227.67z"/>
		<path class="st0" d="M265.76,227.67h-12.33c-1.33,0-2.4-1.07-2.4-2.4V7.77c0-1.33,1.07-2.4,2.4-2.4h12.33c1.33,0,2.4,1.07,2.4,2.4
			v217.5C268.16,226.59,267.09,227.67,265.76,227.67z"/>
		<path class="st0" d="M292.04,227.67h-12.33c-1.33,0-2.4-1.07-2.4-2.4V7.77c0-1.33,1.07-2.4,2.4-2.4h12.33c1.33,0,2.4,1.07,2.4,2.4
			v217.5C294.44,226.59,293.37,227.67,292.04,227.67z"/>
	</g>
	<g>
		<path class="st0" d="M301.51,34.64H7.46c-1.64,0-2.98-1.33-2.98-2.98V14.19c0-1.64,1.33-2.98,2.98-2.98h294.05
			c1.64,0,2.98,1.33,2.98,2.98v17.47C304.48,33.31,303.15,34.64,301.51,34.64z"/>
		<path class="st0" d="M301.51,221.82H7.46c-1.64,0-2.98-1.33-2.98-2.98v-17.47c0-1.64,1.33-2.98,2.98-2.98h294.05
			c1.64,0,2.98,1.33,2.98,2.98v17.47C304.48,220.49,303.15,221.82,301.51,221.82z"/>
	</g>
</g>
</svg>
