<?xml version="1.0" encoding="utf-8"?>
<!-- Generator: Adobe Illustrator 24.1.2, SVG Export Plug-In . SVG Version: 6.00 Build 0)  -->
<svg version="1.1" id="Layer_1" xmlns="http://www.w3.org/2000/svg" xmlns:xlink="http://www.w3.org/1999/xlink" x="0px" y="0px"
	 viewBox="0 0 315 344" style="enable-background:new 0 0 315 344;" xml:space="preserve">
<style type="text/css">
	.st0{fill:#F7E002;}
</style>
<path class="st0" d="M278.83,172c0-21.36-5.48-41.87-15.78-59.93l44.45-26.51L293.8,65.6l-40.57,31.83
	c-3.06-3.91-6.38-7.66-9.94-11.23c-20.69-20.69-47.53-32.98-76.4-35.18l2.7-42.41h-24.2l2.7,42.41
	c-28.87,2.2-55.71,14.49-76.4,35.18c-3.57,3.57-6.88,7.31-9.94,11.23L21.19,65.6L7.5,85.55l44.45,26.51
	c-10.3,18.06-15.78,38.58-15.78,59.93s5.48,41.87,15.78,59.93L7.5,258.45l13.69,19.95l40.57-31.83c3.06,3.91,6.38,7.66,9.94,11.23
	c20.69,20.69,47.53,32.98,76.4,35.18l-2.7,42.41h24.2l-2.7-42.41c28.87-2.2,55.71-14.49,76.4-35.18c3.57-3.57,6.88-7.31,9.94-11.23
	l40.57,31.83l13.69-19.95l-44.45-26.51C273.35,213.87,278.83,193.36,278.83,172z M264.09,172c0,19.01-5.01,36.87-13.76,52.34
	l-12.09-7.22c7.65-13.63,11.72-29.07,11.72-45.13s-4.07-31.49-11.72-45.13l12.09-7.22C259.08,135.13,264.09,152.99,264.09,172z
	 M226.12,225.29c-14.53,18.67-36.5,31.28-61.42,33.33l-4.1-64.36h-6.19l-4.11,64.36c-24.91-2.05-46.89-14.66-61.42-33.33
	l43.57-34.18l-3.5-5.1l-47.37,28.26c-6.99-12.52-10.99-26.93-10.99-42.26c0-15.33,3.99-29.75,10.99-42.26L128.94,158l3.5-5.1
	l-43.57-34.18c14.53-18.67,36.5-31.28,61.42-33.33l4.11,64.36h6.19l4.11-64.36c24.91,2.05,46.89,14.66,61.42,33.33l-43.57,34.18
	l3.5,5.1l47.38-28.26c6.99,12.52,10.99,26.93,10.99,42.26c0,15.33-3.99,29.75-10.99,42.26l-47.37-28.26l-3.5,5.1L226.12,225.29z
	 M241.59,106.57l-11.08,8.69c-2.35-3.01-4.9-5.89-7.64-8.63c-15.67-15.67-35.97-25.01-57.82-26.77l0.9-14.11
	C196.63,68.17,223.69,83.63,241.59,106.57z M149.04,65.75l0.9,14.11c-21.85,1.75-42.15,11.1-57.82,26.77
	c-2.74,2.74-5.29,5.63-7.64,8.63l-11.08-8.69C91.31,83.63,118.37,68.17,149.04,65.75z M50.91,172c0-19.01,5.01-36.87,13.76-52.34
	l12.09,7.22c-7.65,13.63-11.72,29.07-11.72,45.13s4.07,31.49,11.72,45.13l-12.09,7.22C55.92,208.87,50.91,191.01,50.91,172z
	 M73.41,237.43l11.08-8.69c2.35,3.01,4.9,5.89,7.64,8.63c15.67,15.67,35.97,25.01,57.82,26.77l-0.9,14.11
	C118.37,275.84,91.31,260.38,73.41,237.43z M165.96,278.26l-0.9-14.11c21.85-1.75,42.15-11.1,57.82-26.77
	c2.74-2.74,5.29-5.63,7.64-8.63l11.08,8.69C223.69,260.38,196.63,275.84,165.96,278.26z"/>
</svg>
