<?xml version="1.0" encoding="utf-8"?>
<!-- Generator: Adobe Illustrator 24.1.2, SVG Export Plug-In . SVG Version: 6.00 Build 0)  -->
<svg version="1.1" id="Layer_1" xmlns="http://www.w3.org/2000/svg" xmlns:xlink="http://www.w3.org/1999/xlink" x="0px" y="0px"
	 viewBox="0 0 650.3 455.4" style="enable-background:new 0 0 650.3 455.4;" xml:space="preserve">
<style type="text/css">
	.st0{fill:#555555;}
	.st1{fill:#F2D608;}
	.st2{fill:#222222;}
	.st3{fill:#F7E002;}
	.st4{fill:#FFFFFF;}
</style>
<circle class="st0" cx="325.1" cy="227.7" r="142.7"/>
<g>
	<path class="st1" d="M322.9,337.7c-60.6,0-110-49.3-110-110c0-60.6,49.3-110,110-110s110,49.3,110,110
		C432.9,288.3,383.6,337.7,322.9,337.7z"/>
	<path class="st2" d="M322.9,120.2c59.4,0,107.5,48.1,107.5,107.5s-48.1,107.5-107.5,107.5s-107.5-48.1-107.5-107.5
		S263.6,120.2,322.9,120.2 M322.9,115.2c-30,0-58.3,11.7-79.5,32.9s-32.9,49.5-32.9,79.5s11.7,58.3,32.9,79.5s49.5,32.9,79.5,32.9
		s58.3-11.7,79.5-32.9s32.9-49.5,32.9-79.5s-11.7-58.3-32.9-79.5S353,115.2,322.9,115.2L322.9,115.2z"/>
</g>
<g>
	<path d="M303.3,278c3.6,0,6,2.6,7.2,6.2l9.2-4c-2.3-5.6-6.6-12-16.4-12c-12.2,0-20,9.7-20,23.7s7.8,23.7,20,23.7
		c10,0,14.3-6.9,16.4-12.6l-9.2-3.8c-1,3.6-3.5,6.6-7.2,6.6c-5.4,0-8.7-5.8-8.7-13.9C294.6,283.8,297.8,278,303.3,278z"/>
	<path d="M342.4,268.2c-12.4,0-20,9.9-20,23.7c0,13.8,7.6,23.7,20,23.7s20-9.9,20-23.7S354.8,268.2,342.4,268.2z M342.4,305.8
		c-5.6,0-8.7-6-8.7-13.9c0-8,3-13.9,8.7-13.9c5.6,0,8.7,5.9,8.7,13.9C351,299.8,348,305.8,342.4,305.8z"/>
</g>
<path d="M377.3,252.8c-1-2.7-4-3.9-6.7-3l-6.3,2.4l-30.2-14.4l30.5-14.6l6.2,2.1c2.7,1,5.6-0.6,6.5-3.3c1-2.7-0.5-5.6-3.2-6.6
	l-2.9-1l1-2.8c1-2.7-0.4-5.6-3.1-6.6s-5.6,0.5-6.6,3.2l-2.1,6.4l-37.5,17.9l-37.5-17.9l-2.1-6.4c-1-2.7-3.9-4.2-6.6-3.2
	s-4.1,3.9-3.1,6.6l1,2.8l-2.9,1c-2.7,1-4.1,3.9-3.2,6.6c1,2.7,3.8,4.3,6.5,3.3l6.2-2.1l30.5,14.6l-30.2,14.4l-6.3-2.4
	c-2.7-1-5.7,0.3-6.7,3c-0.5,1.3-0.4,2.8,0.2,4c0.6,1.2,1.6,2.2,2.9,2.7l2.9,1l-1,2.9c-1,2.7,0.5,5.7,3.2,6.6c2.7,1,5.7-0.4,6.6-3.1
	l2.3-6.1l37.2-17.8l37.2,17.8l2.3,6.1c1,2.7,4,4,6.6,3.1c2.7-1,4.1-4,3.2-6.6l-1-2.9l2.9-1c1.3-0.5,2.4-1.5,2.9-2.7
	C377.6,255.6,377.8,254.2,377.3,252.8z"/>
<g>
	<path class="st3" d="M156,292.6c-1.3,3.2-1.5,7.1,0.1,10.6c1.2,2.6,3.3,3.6,5.1,2.8c2.2-1,2.3-3.6,2-7.2
		c-0.4-5.5-1.2-12.7,6.5-16.1c5.9-2.6,13.2-0.5,16.8,7.8c2.1,4.7,2.5,9.4,1.1,13.6l-8.4-1.2c1-3.2,0.7-6.6-0.5-9.1
		c-1.1-2.5-2.9-3.1-4.5-2.4c-2,0.9-2,3.4-1.8,7c0.4,5.5,0.9,12.7-6.5,16.1c-6.9,3.1-13.8,0.4-17.5-7.8c-2.7-5.9-2.7-10.9-1.2-15.3
		L156,292.6z"/>
	<path class="st3" d="M195.5,308.7l5.4,8.1l-33.2,22.3l-5.4-8.1L195.5,308.7z"/>
	<path class="st3" d="M206,323.9l6.6,7.1l-23.1,21.4l8.8,9.5l-6.2,5.8l-15.4-16.6L206,323.9z"/>
	<path class="st3" d="M226.6,345l19.5,14.1l-4.9,6.8l-11.6-8.4l-4.2,5.8l11.3,8.1l-4.9,6.8l-11.3-8.1l-4.6,6.3l11.6,8.4l-4.9,6.8
		l-19.5-14.1L226.6,345z"/>
	<path class="st3" d="M254.9,382.3l-8.8,21.3l-8.9-3.7l15.3-37l9.1,3.8l2.2,24.7l8.4-20.3l8.9,3.7l-15.3,37l-8.5-3.5L254.9,382.3z"
		/>
	<path class="st3" d="M294.5,386.1l-8.4-1.4l1.4-8.4l26.5,4.3l-1.4,8.4l-8.5-1.4l-5,31.1l-9.6-1.6L294.5,386.1z"/>
	<path class="st3" d="M351.6,403.9l-1.8,4.5l1.6,10.3l-9.6,1.5l-6.3-39.5l9.6-1.5l2.7,16.6l7.1-18.2l11.2-1.8l-9.4,20.5l16.4,18.9
		l-11.3,1.8L351.6,403.9z"/>
	<path class="st3" d="M371.4,373.4l9.2-3.2l13.3,37.8l-9.2,3.2L371.4,373.4z"/>
	<path class="st3" d="M388.8,367l8.5-4.6l15,27.7l11.3-6.1l4.1,7.5l-19.9,10.8L388.8,367z"/>
	<path class="st3" d="M414.3,352.2l7.5-6.2l20.1,24.3l10-8.2l5.4,6.6l-17.4,14.4L414.3,352.2z"/>
	<path class="st3" d="M436.5,332.9l15.2-18.7l6.5,5.3l-9,11.1l5.6,4.5l8.8-10.8l6.5,5.3l-8.8,10.8l6.1,4.9l9-11.1l6.5,5.3
		l-15.2,18.7L436.5,332.9z"/>
	<path class="st3" d="M485.3,307.8l-1.6,3.2l12.4,6.1l-4.3,8.7l-36-17.8l7.3-14.6c3.5-7,10.7-8.9,17.3-5.6c6.1,3,7.6,7.7,7.5,10.9
		l16.8,0.9l-4.8,9.6L485.3,307.8z M469.9,298.5l-2.3,4.6l8.5,4.2l2.3-4.6c1.1-2.3,0.3-4.7-2.3-6
		C473.5,295.4,471.1,296.2,469.9,298.5z"/>
</g>
<g>
	<path class="st3" d="M172.2,167.9c3.3-1,6.4-3.5,8-7c1.2-2.5,0.6-4.8-1.2-5.7c-2.2-1-4.2,0.6-6.8,3.1c-3.9,3.9-8.8,9.2-16.5,5.6
		c-5.8-2.7-9-9.7-5.2-17.8c2.2-4.6,5.5-8,9.6-9.7l4.7,7.1c-3.1,1.3-5.4,3.8-6.6,6.2c-1.2,2.5-0.4,4.2,1.2,5c2,0.9,3.9-0.6,6.5-3.2
		c3.9-3.9,9-9,16.4-5.5c6.9,3.2,9.4,10.2,5.6,18.4c-2.7,5.9-6.5,9.2-10.9,10.9L172.2,167.9z"/>
	<path class="st3" d="M174.4,123l-5,6.9l-6.9-5.1l15.8-21.6l6.9,5.1l-5.1,6.9l25.5,18.7l-5.7,7.8L174.4,123z"/>
	<path class="st3" d="M198.2,82.6c8.1-7.1,18.8-5,26.8,4.1s8.8,20,0.7,27.1s-18.8,5-26.8-4.1S190.1,89.7,198.2,82.6z M203.9,89
		c-3.7,3.2-2.2,8.9,2.4,14.1c4.6,5.2,10,7.4,13.7,4.2c3.6-3.2,2.2-8.9-2.4-14.1C213,87.9,207.5,85.8,203.9,89z"/>
	<path class="st3" d="M224.2,63.5l14.2-7.5c7.7-4,14.4-0.6,17.7,5.7c3.3,6.2,2.3,13.6-5.4,17.6l-5.6,3l6.5,12.3L243,99L224.2,63.5z
		 M241.3,64l-4.6,2.4l4.5,8.5l4.6-2.4c2.3-1.2,2.9-3.7,1.6-6.2C246,63.6,243.6,62.8,241.3,64z"/>
	<path class="st3" d="M263.1,45l15.5-4.2c8.4-2.3,14.1,2.6,16,9.4c1.8,6.8-0.8,13.7-9.1,16l-6.1,1.6l3.6,13.4l-9.4,2.5L263.1,45z
		 M279.6,49.3l-5,1.3l2.5,9.3l5-1.3c2.5-0.7,3.7-2.9,2.9-5.7C284.2,49.9,282.1,48.6,279.6,49.3z"/>
	<path class="st3" d="M303.5,36.2l9.7-0.9l3.7,40l-9.7,0.9L303.5,36.2z"/>
	<path class="st3" d="M336.1,52.1l-2.1,23l-9.6-0.9l3.6-40l9.8,0.9l9.4,23l2-22l9.5,0.9l-3.6,40l-9.2-0.8L336.1,52.1z"/>
	<path class="st3" d="M390.6,45.4c7,2.5,9.7,8.2,10,13.9l-8.7,0.8c-0.1-2.8-1.2-5.5-4.1-6.5c-4.2-1.5-8.6,1.4-11.3,8.9
		c-2.6,7.5-1,12.5,3.2,14c2.2,0.8,4.3,0.7,5.7,0l1.5-4.3l-6.2-2.2l2.8-7.8l14.7,5.2l-5.5,15.7c-4.7,2.7-9.9,3.6-15.8,1.5
		c-9.9-3.5-13.8-13.6-9.7-25.4C371.3,47.3,380.7,41.9,390.6,45.4z"/>
	<path class="st3" d="M433.1,78l-6.8-5.2l5.2-6.8l21.3,16.2l-5.2,6.8l-6.8-5.2L421.6,109l-7.7-5.9L433.1,78z"/>
	<path class="st3" d="M458.5,123.6l-7.4-8.9l-12.6,10.5l-6.2-7.5L463.2,92l6.2,7.5l-11.7,9.7l7.4,8.9l11.7-9.7l6.2,7.5l-30.9,25.7
		l-6.2-7.5L458.5,123.6z"/>
	<path class="st3" d="M491.6,129.6l10.8,21.4l-7.5,3.8l-6.4-12.8l-6.5,3.3l6.3,12.4l-7.5,3.8l-6.3-12.4l-7,3.5l6.4,12.8l-7.5,3.8
		l-10.8-21.4L491.6,129.6z"/>
</g>
<path class="st4" d="M325.2,364.7c-75.5,0-137-61.4-137-137s61.4-137,137-137c75.5,0,136.9,61.4,136.9,137S400.7,364.7,325.2,364.7z
	 M325.2,92.8c-74.4,0-135,60.5-135,135c0,74.4,60.5,135,135,135c74.4,0,134.9-60.5,134.9-135S399.6,92.8,325.2,92.8z"/>
<g>
	<circle cx="322.9" cy="172.5" r="32.6"/>
	<g>
		<g>
			<path class="st1" d="M309.1,177.7l-6-1.9c-3.5-1.1-5.4-4.9-4.3-8.4v0c1.1-3.5,4.9-5.4,8.4-4.3l6,1.9c3.5,1.1,5.4,4.9,4.3,8.4v0
				C316.3,176.9,312.6,178.8,309.1,177.7z"/>
		</g>
		<g>
			<path class="st1" d="M336.7,177.7l6-1.9c3.5-1.1,5.4-4.9,4.3-8.4v0c-1.1-3.5-4.9-5.4-8.4-4.3l-6,1.9c-3.5,1.1-5.4,4.9-4.3,8.4v0
				C329.5,176.9,333.2,178.8,336.7,177.7z"/>
		</g>
	</g>
	<path class="st1" d="M322,180.7c0.4-0.7,1.3-0.7,1.7,0l2.5,4.2l2.5,4.2c0.4,0.7-0.1,1.5-0.9,1.5h-4.9H318c-0.8,0-1.3-0.8-0.9-1.5
		l2.5-4.2L322,180.7z"/>
	<polygon points="337.8,195.7 308,195.7 308,211.3 316.1,211.3 316.1,207.1 318.8,207.1 318.8,211.3 327,211.3 327,207.1 
		329.7,207.1 329.7,211.3 337.8,211.3 	"/>
</g>
</svg>
